<svg width="701" height="129" viewBox="0 0 701 129" fill="none" xmlns="http://www.w3.org/2000/svg">
<path d="M0.897405 129C1.74177 122.547 2.55598 115.973 3.34004 109.278C4.18441 102.583 5.08909 95.3459 6.05408 87.5657L11.5726 43.5982C12.5376 35.8783 13.4423 28.49 14.2867 21.4335C15.1914 14.3167 16.096 7.16975 17.0007 -0.00738201H61.8728C63.8028 5.4207 65.6122 10.5171 67.3009 15.2817C68.9897 19.9861 70.6784 24.6602 72.3671 29.3043L82.3186 57.1684H85.0326L94.0795 29.3947C95.6476 24.6904 97.1554 20.0765 98.6029 15.5531C100.111 11.0297 101.799 5.84288 103.669 -0.00738201H147.817C148.782 7.10944 149.717 14.1961 150.622 21.2526C151.587 28.3091 152.582 35.818 153.607 43.7791L159.397 87.6561C160.423 95.557 161.357 102.794 162.202 109.368C163.107 115.882 163.981 122.426 164.825 129H122.667C121.883 122.547 121.129 116.455 120.406 110.725C119.682 104.936 118.988 99.4773 118.325 94.3508L115.611 72.548H112.716L107.107 95.8887C105.72 101.739 104.332 107.438 102.945 112.987C101.618 118.536 100.352 123.873 99.1457 129H70.015C68.869 125.502 67.6929 121.913 66.4867 118.234C65.2805 114.555 64.0742 110.846 62.868 107.107C61.6617 103.307 60.4254 99.5376 59.1588 95.7982L51.5595 72.548H48.6645L46.0409 94.0794C45.4378 99.2662 44.7744 104.785 44.0506 110.635C43.3269 116.485 42.573 122.607 41.7889 129H0.897405Z" fill="#5BACF8"/>
<path d="M173.642 129C176.356 122.848 179.13 116.576 181.965 110.183C184.8 103.729 187.725 97.0648 190.74 90.1892L205.306 57.1684V66.5771L192.278 39.6176C189.323 33.4658 186.277 27.1933 183.141 20.8003C180.065 14.4072 176.718 7.47131 173.099 -0.00738201H223.218C224.666 4.21446 226.083 8.37599 227.47 12.4772C228.918 16.5181 230.275 20.3781 231.541 24.0571L236.427 38.1701H239.322L243.845 23.9666C245.051 20.2273 246.288 16.3673 247.554 12.3867C248.821 8.34584 250.117 4.21446 251.444 -0.00738201H299.754C296.437 7.411 293.241 14.4675 290.165 21.1621C287.149 27.8568 284.375 34.0086 281.842 39.6176L267.367 71.6433V60.7871L282.022 89.1036C285.641 96.0998 289.109 102.794 292.426 109.188C295.743 115.581 299.151 122.185 302.649 129H250.54C249.152 124.959 247.856 121.22 246.649 117.782C245.443 114.284 244.267 110.906 243.121 107.65L237.512 91.5462H234.617L229.37 107.74C228.284 111.057 227.169 114.465 226.023 117.963C224.937 121.401 223.761 125.08 222.495 129H173.642Z" fill="#D64274"/>
<path d="M347.986 129C347.986 122.305 347.986 115.792 347.986 109.459C347.986 103.066 347.986 95.7681 347.986 87.5657V43.2363C347.986 34.6117 347.986 26.9822 347.986 20.3479C347.986 13.7136 347.986 6.9285 347.986 -0.00738201H392.497C392.497 6.9285 392.497 13.7136 392.497 20.3479C392.497 26.9822 392.497 34.6117 392.497 43.2363V80.3282C392.497 88.5306 392.497 95.8284 392.497 102.221C392.497 108.554 392.497 115.068 392.497 121.763L377.66 90.6416H404.619C410.108 90.6416 414.933 90.6416 419.094 90.6416C423.316 90.6416 427.236 90.6416 430.855 90.6416C434.474 90.6416 438.153 90.6416 441.892 90.6416V129H347.986ZM448.382 129C450.372 122.124 452.483 114.857 454.715 107.197C456.946 99.4773 459.057 92.2097 461.047 85.3944L473.894 41.0651C476.246 32.9833 478.357 25.7458 480.227 19.3528C482.096 12.9597 483.966 6.50632 485.836 -0.00738201H542.469C544.459 6.86819 546.389 13.5025 548.259 19.8956C550.128 26.2887 552.179 33.3452 554.41 41.0651L567.257 85.3944C569.368 92.5112 571.509 99.8391 573.68 107.378C575.851 114.917 577.932 122.124 579.922 129H534.146C532.879 122.908 531.582 116.666 530.255 110.273C528.989 103.82 527.752 97.7584 526.546 92.0891L515.147 36.7226H512.252L500.672 91.3653C499.406 97.3362 498.079 103.609 496.692 110.183C495.305 116.757 493.978 123.029 492.711 129H448.382ZM487.283 108.011L492.349 75.4429H541.564L545.725 108.011H487.283ZM640.902 129C633.906 129 627.362 129 621.27 129C615.179 129 609.54 129 604.353 129C599.166 129 594.401 129 590.059 129C590.059 122.305 590.059 115.792 590.059 109.459C590.059 103.066 590.059 95.7681 590.059 87.5657V43.2363C590.059 34.6117 590.059 26.9822 590.059 20.3479C590.059 13.7136 590.059 6.9285 590.059 -0.00738201C597.839 -0.00738201 606.826 -0.00738201 617.018 -0.00738201C627.272 -0.00738201 637.404 -0.00738201 647.416 -0.00738201C657.729 -0.00738201 666.203 0.716363 672.837 2.16385C679.472 3.55103 684.658 5.54133 688.398 8.13474C692.137 10.7282 694.731 13.7739 696.178 17.272C697.686 20.7701 698.44 24.5999 698.44 28.7614C698.44 34.3102 697.354 39.105 695.183 43.1459C693.072 47.1265 690.177 50.3833 686.498 52.9164C682.819 55.3892 678.657 57.1081 674.013 58.0731V60.9681C679.984 62.3552 684.96 64.3455 688.941 66.9389C692.981 69.472 695.997 72.7892 697.987 76.8904C699.978 80.9916 700.973 86.0579 700.973 92.0891C700.973 97.8187 700.098 102.975 698.349 107.559C696.6 112.082 693.524 115.942 689.121 119.139C684.719 122.336 678.597 124.778 670.756 126.467C662.976 128.156 653.025 129 640.902 129ZM633.665 98.7837H645.245C647.174 98.7837 648.863 98.4218 650.311 97.6981C651.819 96.9743 652.964 95.8586 653.748 94.3508C654.593 92.7826 655.015 90.7622 655.015 88.2894C655.015 85.0929 654.261 82.5598 652.753 80.6901C651.246 78.7601 648.803 77.7951 645.425 77.7951H622.989V50.8356H642.892C644.883 50.8356 646.632 50.4738 648.139 49.75C649.647 49.0263 650.793 47.9105 651.577 46.4027C652.422 44.8949 652.844 42.9348 652.844 40.5223C652.844 37.2654 652.15 34.6117 650.763 32.5611C649.436 30.5105 647.174 29.4852 643.978 29.4852H633.665C633.665 32.742 633.665 36.1798 633.665 39.7985C633.665 43.357 633.665 47.6391 633.665 52.645V77.976C633.665 82.5598 633.665 86.4499 633.665 89.6464C633.665 92.843 633.665 95.8887 633.665 98.7837Z" fill="white"/>
</svg>
